# xmcd
#
# Track frame offsets: 
#        150
#        18683
#        50004
#        64186
#        77305
#        93248
#        104886
#        136379
#        147257
#
# Disc length: 2296 seconds
#
# Revision: 0
# Processed by: cddbd v1.4PL0 Copyright (c) Steve Scherf et al.
# Submitted via: ExactAudioCopy v0.90b2
#
DISCID=7d08f609
DTITLE=Livin' Blues - Rocking At The Tweed Mill
DYEAR=1972
DGENRE=Blues
TTITLE0=Ain't No Use Crying
TTITLE1=Diving Duck Blues
TTITLE2=Eye To Eye
TTITLE3=Please Don't Leave Me
TTITLE4=Sweet Suzanne
TTITLE5=Shady Girl, Shady Girl
TTITLE6=Fool On You
TTITLE7=Tongue 'n' Groove
TTITLE8=You're A Stranger
EXTD=
EXTT0=
EXTT1=
EXTT2=
EXTT3=
EXTT4=
EXTT5=
EXTT6=
EXTT7=
EXTT8=
PLAYORDER=
